<?xml version="1.0" standalone="yes"?>
<svg xmlns="http://www.w3.org/2000/svg" width="474" height="133">
<path style="fill:#ffffff; stroke:none;" d="M0 0L0 133L474 133L474 0L0 0z"/>
<path style="fill:#ebdd73; stroke:none;" d="M173 83L172.415 84.6713L172.358 85.159L172.16 86.1605L172.034 88.0247C171.993 90.0163 172 92.008 172 94L172 106C172.003 107.66 171.962 109.328 172.148 110.981C172.289 112.238 172.712 113.485 173.603 114.411C174.282 115.116 175.155 115.524 176.059 115.853C177.008 116.198 178.018 116.38 179.001 116.596L182 117.196C182.997 117.387 183.994 117.576 185 117.711C186.329 117.891 187.665 117.958 189 118.075C190.006 118.163 191 118.291 192 118.424C193 118.557 193.994 118.748 195 118.83L197 118.961L201 118.999C202.668 118.994 204.338 118.991 206 118.83C207.676 118.668 209.34 118.36 211 118.079C212.337 117.854 213.684 117.655 215 117.324C216.01 117.07 217.01 116.804 218 116.48C219.014 116.148 220.008 115.764 221 115.373C222.371 114.833 223.724 114.209 225 113.471C227.163 112.219 229.14 110.673 230.907 108.907C232.939 106.874 234.692 104.562 236.004 102C236.658 100.721 237.197 99.3666 237.638 98L238.254 96C238.521 95.0041 238.767 94.0078 238.985 93C239.344 91.3456 239.637 89.682 239.829 88C239.942 87.009 239.966 85.9964 239.946 85C239.906 82.9757 239.588 80.9814 239.192 79C238.854 77.3097 238.463 75.6308 237.899 74C237.182 71.9297 236.231 69.9382 235.215 68C234.118 65.9067 232.915 63.875 231.471 62C230.387 60.5936 229.192 59.2804 227.96 58.0039C226.998 57.0078 226.01 56.0354 224.999 55.0895C222.753 52.9879 220.351 51.066 218.004 49.0802L215.115 46.5965L213.45 44.9907L212.239 43.6296L211 42L214.16 40.4221L216.025 39.6836L218.002 39.2276L220 39.0833L221 39.1049L221.998 39.1736L222.995 39.2863L225.84 39.7137L227.329 39.902L229 40L229 10L227.329 9.81713L226.841 9.72453L225.84 9.57484L223.975 9.28164L219 8.71836L215 8.16975C212.676 7.94843 210.332 7.99715 208 8C206 8.00244 203.992 7.97118 202 8.17052C200.319 8.33872 198.65 8.65742 197 9.01466C195.993 9.23263 194.992 9.46778 194 9.74614C192.988 10.03 191.993 10.3585 191 10.6998C189.983 11.0494 188.972 11.4518 188 11.912C186.611 12.5697 185.255 13.3281 184.004 14.2238L183.015 14.9282C182.037 15.6822 181.073 16.44 180.185 17.3009C179.023 18.4277 178.012 19.6736 177.108 21.0147C176.463 21.9724 175.915 22.9794 175.378 24L174.478 26C174.067 26.9667 173.768 27.9887 173.49 29L173.015 31L172.616 33C172.445 33.9981 172.269 34.9911 172.171 36C172.075 36.9968 172.034 37.9987 172.054 39C172.094 41.0241 172.411 43.0188 172.808 45C173.077 46.3445 173.366 47.6929 173.785 49C174.116 50.0298 174.52 51.0242 174.985 52C175.476 53.0286 176.043 54.0244 176.63 55C177.466 56.3877 178.366 57.734 179.379 59C180.797 60.7732 182.402 62.3804 184.004 63.9853C185.29 65.2746 186.626 66.5153 188 67.7106C189.949 69.4069 192.009 70.9692 194 72.615C195.01 73.4501 196.006 74.2939 196.981 75.1705L198.847 77.0394L199.663 78.0147L200.338 79.0031L200.824 79.9961L201.079 81.9421L200.338 83.6929L199.663 84.4213L198.847 85.0224L197.941 85.4769L195.995 85.9907L194 86.1196L192 86.0795L190 86.0208L187 85.9113L185 85.7106C183.658 85.5359 182.324 85.2712 181 84.9961C179.677 84.7212 178.356 84.44 177.045 84.1111C175.688 83.7709 174.346 83.3784 173 83M292 8.43904C289.978 8.7573 287.976 9.21838 286 9.74537C284.989 10.0148 283.994 10.3471 283 10.6713C280.629 11.445 278.262 12.2644 276 13.3233C273.54 14.4753 271.222 15.8803 269 17.4398C266.176 19.422 263.48 21.5983 261.039 24.0394C258.886 26.1923 256.952 28.5419 255.159 31C253.536 33.2252 252.045 35.5354 250.81 38C249.523 40.5678 248.561 43.2735 247.671 46C247.24 47.3235 246.823 48.6506 246.478 50C246.225 50.9937 246.016 51.9962 245.808 53C245.534 54.3206 245.305 55.6576 245.171 57C245.037 58.3297 245.016 59.6648 245.004 61L245.001 64C245.008 65.6687 245.009 67.3372 245.17 69C245.332 70.6768 245.641 72.3404 245.924 74C246.153 75.3452 246.404 76.681 246.757 78C247.304 80.0422 248.043 82.0326 248.812 84C249.611 86.0454 250.451 88.0756 251.515 90C252.468 91.7239 253.571 93.3679 254.671 95C256.07 97.0757 257.506 99.1225 259.184 100.985C261.236 103.262 263.56 105.253 266 107.1C267.922 108.556 269.913 109.916 272 111.124C273.305 111.88 274.648 112.573 276 113.241C277.965 114.212 279.934 115.169 282 115.91C284.275 116.726 286.627 117.293 289 117.739L292 118.246C293.329 118.465 294.658 118.7 296 118.83C297.329 118.959 298.666 118.995 300 118.995C301.333 118.995 302.669 119 304 118.91C305.007 118.843 306.001 118.715 307 118.572L310 118.079L313 117.55C314.685 117.189 316.361 116.788 318 116.251L320 115.536L322 114.688L325 113.241L328 111.688C329.37 110.934 330.703 110.123 332 109.251C333.369 108.33 334.703 107.351 335.999 106.331C337.362 105.259 338.682 104.137 339.91 102.91C340.837 101.982 341.689 100.997 342.535 99.9961L344.1 98C345.094 96.7126 346.032 95.369 346.91 94C348.147 92.0707 349.217 90.0484 350.241 88C351.22 86.0407 352.169 84.0643 352.91 82C353.841 79.403 354.449 76.6998 354.996 74C355.332 72.3447 355.661 70.6823 355.829 69C355.996 67.3385 355.994 65.6678 355.999 64C356.006 62.0015 356.029 59.9911 355.829 58C355.628 55.9815 355.211 53.9821 354.789 52C354.432 50.3213 354.048 48.6464 353.561 47C353.058 45.3012 352.439 43.6481 351.792 42C351.26 40.645 350.682 39.3016 350.029 38C349.166 36.2783 348.179 34.617 347.134 33C345.784 30.9093 344.319 28.8918 342.699 27.0008C340.666 24.6276 338.424 22.4404 336 20.4676C334.714 19.4206 333.366 18.4589 332 17.5201L330 16.2292C329.02 15.605 328.015 15.0062 327 14.4398C325.698 13.7133 324.376 13.0401 323 12.4645C321.69 11.9167 320.344 11.4576 319 11.0039L316 10.0394L314 9.50308C312.686 9.17332 311.335 8.97708 310 8.75463L307 8.28627L306 8.16975L304 8.03935L300 8C298.332 8 296.666 7.99854 295 8.08951C293.994 8.14445 292.995 8.28249 292 8.43904M11 10L11.2253 11.6713L11.6103 13.1605C12.4539 15.8256 13.5827 18.3894 14.5756 21L16.811 27L21.189 38L23.811 45L25.8002 50L29.7971 60L30.9498 63L32.811 68L37.189 79L39.4244 85L41 89C42.1954 91.9981 43.428 94.9832 44.5756 98L46.4244 103L48 107C48.6608 108.655 49.2898 110.331 50.0548 111.941C50.6085 113.107 51.3205 114.246 52.4182 114.972C53.476 115.672 54.7761 115.871 56.0154 115.941C57.6736 116.035 59.34 115.999 61 116L80 116L80.4136 114.329L80.588 113.841L80.9105 112.84L82.4005 108.998L84.7971 103L85.9498 100L87.4244 96C88.572 92.9832 89.8046 89.9981 91 87L92.5756 83L95.2029 76L99.1998 66L101.189 61L103.05 56L104.203 53L108.189 43L110.05 38C111.557 33.9709 113.224 30.0034 114.797 26L116.681 21L117.424 19L118.907 15.0247L119.471 13.1605L119.801 11.6713L120 10L95 10L91 10.0008L89.0039 10.0193C87.4244 10.0886 85.7698 10.1404 84.3935 11.0278C82.6405 12.1581 81.817 14.1743 81.0154 16.0046L79.8002 19L78.2029 23L77.0502 26L75.5756 30L73.6003 35L70.8002 42L68.4005 48L67.2431 50.9753L66.6103 52.8395L66.3681 53.841L66.2253 54.3287L66 56L65.1898 54.3287L64.99 53.841L64.5502 52.8395L62.6003 48C61.5347 45.3366 60.4444 42.6813 59.4244 40L57.5756 35C56.1728 31.3122 54.6459 27.6721 53.2029 24L51.6813 20C51.1904 18.6653 50.7316 17.3135 50.1736 16.0046L49.2909 14.0586L48.7755 13.1481L47.5008 11.6034L46.7253 11.0278C45.3067 10.1471 43.6132 10.0896 41.9992 10.0193L40 10.0008L36 10L11 10M125 116L161 116L161 10L136 10L133 10.0008C132.006 10.0047 131.012 10.0021 130.019 10.0586L128.148 10.3179L126.603 11.0278L126.028 11.6034L125.603 12.3179L125.148 14.0586L125.019 16.0046L125.001 18L125 24L125 37L125 116M367 116L401 116L401 91L402.314 92.6713L403.37 94.1605C404.427 95.7451 405.413 97.3707 406.399 99L408.799 103L410.576 106L412.846 109.995L414.473 112.84L414.992 113.841L415.271 114.329L416 116L456 116L455.571 114.329L455 112.84L454.095 110.975L452.421 108L449.579 103L448.424 101L447.306 99L445.14 95L442.85 91C441.264 88.2132 439.683 85.4246 438.04 82.6713L437 81L438.671 79.9136L440.145 78.679L441.92 76.9414L442.792 75.9815L444.363 73.9992C445.049 73.044 445.638 72.0295 446.204 71C446.744 70.0167 447.252 69.0111 447.738 68C448.366 66.6922 448.969 65.3696 449.452 64C449.911 62.6984 450.277 61.3564 450.532 60C450.72 59.0073 450.839 58.0073 450.91 57C450.98 56.0009 450.981 55.0007 450.996 54L450.999 51C450.992 49.332 450.996 47.6618 450.829 46C450.695 44.658 450.468 43.3198 450.192 42C449.982 40.9958 449.778 39.991 449.51 39C449.235 37.9829 448.913 36.9826 448.532 36C448 34.6261 447.352 33.3073 446.676 32L446.12 31L444.895 29L443.471 27L442.671 26.0008L441.815 25.0039L439.96 23.0401C438.418 21.4978 436.774 20.0591 435 18.7886C433.421 17.6581 431.734 16.6801 430 15.8102C427.437 14.5248 424.748 13.5511 422 12.7461C421.012 12.4566 420.004 12.2403 419 12.0147C418.009 11.792 417.003 11.5974 416 11.439C415.002 11.2816 414.007 11.1627 413 11.0856L409 10.831C407.661 10.6971 406.333 10.4671 405 10.2855L403 10.0895C401.669 9.9984 400.333 10.0036 399 10.0008L393 10L376 10C374.354 10.0034 372.697 9.95793 371.059 10.1481C370.21 10.2466 369.287 10.4864 368.603 11.0278L368.028 11.6034L367.603 12.3179L367.148 14.0586L367.019 16.0046L367.001 18L367 24L367 37L367 116z"/>
<path style="fill:#ffffff; stroke:none;" d="M401 39L401 62C402.349 61.9961 403.696 62.0031 405.045 61.9568L407.005 61.7863L408.999 61.3472L409.996 60.9907L411.956 59.9907C413.554 58.976 414.928 57.6401 415.821 55.9568C416.63 54.4305 416.896 52.7083 416.916 51L416.807 49.0008L416.655 48.0039L416.427 47.0154L416.106 46.0432L415.142 44.2137L413.721 42.652C412.37 41.4744 410.681 40.776 408.999 40.2245C408.025 39.905 407.026 39.6814 406.025 39.4676L404.16 39.1736L402.671 39.0417L401 39M294 42.5324C291.132 43.2157 288.414 44.6173 286.174 46.5324C284.661 47.8258 283.359 49.3664 282.249 51.0147C281.208 52.5608 280.354 54.2155 279.803 56C279.005 58.5844 278.981 61.3198 279.005 64C279.016 65.3326 279.019 66.6782 279.213 68C279.416 69.3854 279.813 70.7151 280.367 72C281.137 73.7843 282.172 75.4726 283.39 76.9846L285.105 78.8951L286.043 79.7863L288.004 81.3511L289.001 82.0054L290 82.5826L292 83.517L294 84.2106L295 84.4707L296 84.6713L297 84.8148C298.332 84.9412 299.661 85.0001 301 84.9815C302.681 84.9581 304.357 84.8504 306 84.4707C308.105 83.9841 310.165 83.1483 311.999 82.0054L313.985 80.6065L314.957 79.7863L315.895 78.8951L317.606 76.9846L318.351 75.9961L319.583 74L320.517 72L320.891 71L321.211 70L321.671 68L321.815 67L321.907 66L321.985 64L321.984 62C321.942 60.6568 321.896 59.3189 321.61 58C321.227 56.2419 320.513 54.5879 319.672 53.0039C318.782 51.3286 317.747 49.7103 316.471 48.3009L314.815 46.6836L313.907 45.939L312.96 45.2492L310.996 44.0502L309.999 43.5579L309 43.1443L307 42.5332C304.719 41.9824 302.333 41.9874 300 42.0046C297.989 42.0195 295.967 42.0639 294 42.5324z"/>
</svg>
